<svg width="19" height="23" viewBox="0 0 19 23" fill="none" xmlns="http://www.w3.org/2000/svg">
<path d="M12.3628 20.79C13.2492 20.79 13.9678 20.0714 13.9678 19.185C13.9678 18.2986 13.2492 17.5801 12.3628 17.5801C11.4764 17.5801 10.7578 18.2986 10.7578 19.185C10.7578 20.0714 11.4764 20.79 12.3628 20.79Z" fill="#6C3AFF"/>
<path d="M18.6037 16.372C18.1078 15.1088 17.2522 14.0189 16.1428 13.2373C15.0335 12.4558 13.7192 12.0169 12.3628 11.9752C11.0064 12.0169 9.69206 12.4558 8.5827 13.2373C7.47334 14.0189 6.61772 15.1088 6.12188 16.372L5.94293 16.7901L6.12188 17.209C6.61784 18.472 7.47352 19.5618 8.58287 20.3432C9.69222 21.1246 11.0065 21.5633 12.3628 21.605C13.7191 21.5633 15.0333 21.1246 16.1427 20.3432C17.252 19.5618 18.1077 18.472 18.6037 17.209L18.7826 16.7901L18.6037 16.372ZM12.3628 20C11.7279 20 11.1073 19.8118 10.5794 19.459C10.0516 19.1063 9.64014 18.605 9.39719 18.0185C9.15424 17.4319 9.09067 16.7865 9.21453 16.1639C9.33838 15.5412 9.6441 14.9693 10.093 14.5203C10.5419 14.0714 11.1139 13.7657 11.7365 13.6419C12.3592 13.518 13.0046 13.5816 13.5912 13.8245C14.1777 14.0675 14.679 14.4789 15.0317 15.0068C15.3844 15.5346 15.5727 16.1552 15.5727 16.7901C15.5716 17.6411 15.2331 18.4569 14.6314 19.0587C14.0296 19.6604 13.2138 19.999 12.3628 20Z" fill="#6C3AFF"/>
<path d="M5.61736 21.1196H1.60496V4.26753H4.0124V6.67496H13.6422V4.26753H16.0496V11.4898H17.6546V4.26753C17.6546 3.84186 17.4855 3.43364 17.1845 3.13265C16.8835 2.83166 16.4753 2.66257 16.0496 2.66257H13.6422V1.86009C13.6422 1.43442 13.4731 1.0262 13.1721 0.725209C12.8711 0.42422 12.4629 0.255127 12.0372 0.255127H5.61736C5.1917 0.255127 4.78347 0.42422 4.48248 0.725209C4.18149 1.0262 4.0124 1.43442 4.0124 1.86009V2.66257H1.60496C1.1793 2.66257 0.77107 2.83166 0.470082 3.13265C0.169093 3.43364 0 3.84186 0 4.26753V21.1196C0 21.5453 0.169093 21.9535 0.470082 22.2545C0.77107 22.5555 1.1793 22.7246 1.60496 22.7246H5.61736V21.1196ZM5.61736 1.86009H12.0372V5.07H5.61736V1.86009Z" fill="#6C3AFF"/>
</svg>
