<svg width="20" height="18" viewBox="0 0 20 18" fill="none" xmlns="http://www.w3.org/2000/svg">
<path d="M2 16H6V8H2V16ZM8 16H12V2H8V16ZM14 16H18V10H14V16ZM0 16V8C0 7.45 0.196 6.97933 0.588 6.588C0.98 6.19667 1.45067 6.00067 2 6H6V2C6 1.45 6.196 0.979333 6.588 0.588C6.98 0.196667 7.45067 0.000666667 8 0H12C12.55 0 13.021 0.196 13.413 0.588C13.805 0.98 14.0007 1.45067 14 2V8H18C18.55 8 19.021 8.196 19.413 8.588C19.805 8.98 20.0007 9.45067 20 10V16C20 16.55 19.8043 17.021 19.413 17.413C19.0217 17.805 18.5507 18.0007 18 18H2C1.45 18 0.979333 17.8043 0.588 17.413C0.196667 17.0217 0.000666667 16.5507 0 16Z" fill="#7C3AED"/>
</svg>
