<svg width="16" height="18" viewBox="0 0 16 18" fill="none" xmlns="http://www.w3.org/2000/svg">
<path fill-rule="evenodd" clip-rule="evenodd" d="M8 0.041626C6.95018 0.041626 5.94337 0.458663 5.20104 1.20099C4.4587 1.94333 4.04167 2.95014 4.04167 3.99996C4.04167 5.04977 4.4587 6.05659 5.20104 6.79892C5.94337 7.54125 6.95018 7.95829 8 7.95829C9.04982 7.95829 10.0566 7.54125 10.799 6.79892C11.5413 6.05659 11.9583 5.04977 11.9583 3.99996C11.9583 2.95014 11.5413 1.94333 10.799 1.20099C10.0566 0.458663 9.04982 0.041626 8 0.041626ZM5.29167 3.99996C5.29167 3.28166 5.57701 2.59279 6.08492 2.08488C6.59283 1.57697 7.2817 1.29163 8 1.29163C8.71829 1.29163 9.40717 1.57697 9.91508 2.08488C10.423 2.59279 10.7083 3.28166 10.7083 3.99996C10.7083 4.71825 10.423 5.40713 9.91508 5.91504C9.40717 6.42295 8.71829 6.70829 8 6.70829C7.2817 6.70829 6.59283 6.42295 6.08492 5.91504C5.57701 5.40713 5.29167 4.71825 5.29167 3.99996ZM8 9.20829C6.0725 9.20829 4.29583 9.64663 2.98 10.3866C1.68333 11.1166 0.708333 12.2216 0.708333 13.5833V13.6683C0.7075 14.6366 0.706666 15.8516 1.7725 16.72C2.29667 17.1466 3.03083 17.4508 4.0225 17.6508C5.01583 17.8525 6.31167 17.9583 8 17.9583C9.68833 17.9583 10.9833 17.8525 11.9783 17.6508C12.97 17.4508 13.7033 17.1466 14.2283 16.72C15.2942 15.8516 15.2925 14.6366 15.2917 13.6683V13.5833C15.2917 12.2216 14.3167 11.1166 13.0208 10.3866C11.7042 9.64663 9.92833 9.20829 8 9.20829ZM1.95833 13.5833C1.95833 12.8741 2.47667 12.1041 3.5925 11.4766C4.68917 10.86 6.24583 10.4583 8.00083 10.4583C9.75417 10.4583 11.3108 10.86 12.4075 11.4766C13.5242 12.1041 14.0417 12.8741 14.0417 13.5833C14.0417 14.6733 14.0083 15.2866 13.4383 15.75C13.13 16.0016 12.6133 16.2475 11.73 16.4258C10.8492 16.6041 9.645 16.7083 8 16.7083C6.355 16.7083 5.15 16.6041 4.27 16.4258C3.38667 16.2475 2.87 16.0016 2.56167 15.7508C1.99167 15.2866 1.95833 14.6733 1.95833 13.5833Z" fill="white"/>
</svg>
