<svg width="17" height="16" viewBox="0 0 17 16" fill="none" xmlns="http://www.w3.org/2000/svg">
<path d="M15.1667 3.83333V2.16667C15.1667 1.2475 14.4192 0.5 13.5 0.5H2.66667C1.28834 0.5 0.166672 1.62167 0.166672 3V13C0.166672 14.8342 1.66167 15.5 2.66667 15.5H15.1667C16.0858 15.5 16.8333 14.7525 16.8333 13.8333V5.5C16.8333 4.58083 16.0858 3.83333 15.1667 3.83333ZM2.66667 2.16667H13.5V3.83333H2.66667C2.45211 3.82374 2.24951 3.73174 2.10107 3.57651C1.95263 3.42129 1.86978 3.21478 1.86978 3C1.86978 2.78522 1.95263 2.57871 2.10107 2.42349C2.24951 2.26826 2.45211 2.17626 2.66667 2.16667ZM15.1667 13.8333H2.67667C2.29167 13.8233 1.83334 13.6708 1.83334 13V5.34583C2.09501 5.44 2.3725 5.5 2.66667 5.5H15.1667V13.8333Z" fill="#A78BFA" fill-opacity="0.8"/>
</svg>
